<?xml version="1.0" encoding="utf-8"?>
<!-- Generator: Adobe Illustrator 16.0.0, SVG Export Plug-In . SVG Version: 6.00 Build 0)  -->
<!DOCTYPE svg PUBLIC "-//W3C//DTD SVG 1.1//EN" "http://www.w3.org/Graphics/SVG/1.1/DTD/svg11.dtd">
<svg version="1.1" id="Layer_1" xmlns="http://www.w3.org/2000/svg" xmlns:xlink="http://www.w3.org/1999/xlink" x="0px" y="0px"
	 width="369.781px" height="68.032px" viewBox="0 0 369.781 68.032" enable-background="new 0 0 369.781 68.032"
	 xml:space="preserve">
<polygon points="56.743,0 0,0.001 0,9.533 23.071,9.533 23.071,68.032 33.66,68.032 33.66,9.533 56.743,9.533 "/>
<rect x="79.061" y="0" width="10.483" height="68.032"/>
<g>
	<defs>
		<rect id="SVGID_1_" y="0.001" width="369.781" height="68.031"/>
	</defs>
	<clipPath id="SVGID_2_">
		<use xlink:href="#SVGID_1_"  overflow="visible"/>
	</clipPath>
	<path clip-path="url(#SVGID_2_)" d="M173.872,20.955v-0.191c0-5.457-2.035-10.381-5.726-13.859C163.465,2.453,156.198,0,147.683,0
		h-30.941v68.031h10.506v-25.39h17.609l19.958,25.39h12.979l-21.502-27.155C167.348,38.249,173.872,30.925,173.872,20.955
		 M127.248,9.533h19.862c10.307,0,16.221,4.195,16.221,11.509v0.191c0,7.32-6.413,12.05-16.338,12.05h-19.745V9.533z"/>
	<polygon clip-path="url(#SVGID_2_)" points="191.998,9.532 215.035,9.532 215.035,68.031 225.634,68.031 225.634,9.532 
		248.706,9.532 248.706,0 191.998,0 	"/>
	<rect x="271.035" y="0.001" clip-path="url(#SVGID_2_)" width="10.494" height="68.031"/>
	<path clip-path="url(#SVGID_2_)" d="M348.267,40.876c11.063-2.627,17.591-9.951,17.591-19.922v-0.191
		c0-5.427-2.029-10.349-5.718-13.863C355.423,2.451,348.148,0,339.656,0h-30.94v68.031h10.482v-25.39h17.631l19.923,25.39h13.028
		L348.267,40.876z M319.198,9.532h19.873c10.172,0,16.245,4.302,16.245,11.509v0.191c0,3.6-1.531,6.628-4.427,8.754
		c-2.938,2.156-7.068,3.296-11.946,3.296h-19.745V9.532z"/>
</g>
</svg>
